# xmcd
#
# Track frame offsets: 
#        150
#        12516
#        24425
#        39097
#        49515
#        62293
#        73563
#        87357
#        98193
#        111348
#        125649
#        139341
#        152888
#        161638
#        174294
#        184678
#        198537
#        215882
#        233587
#        246831
#        260072
#
# Disc length: 3765 seconds
#
# Revision: 0
# Processed by: cddbd v1.5.2PL0 Copyright (c) Steve Scherf et al.
# Submitted via: ExactAudioCopy v1.3
#
DISCID=260eb315
DTITLE=Various Artist - Country Jukebox, CD3 - Burning bridges 
DYEAR=2014
DGENRE=Country
TTITLE0=Lynn Anderson - How can I unlove you
TTITLE1=Conway Twitty - Linda on my mind
TTITLE2=Bobby Sykes - Born to lose
TTITLE3=Patsy Cline - How can I face tomorrow
TTITLE4=Merle Haggard - The emptiest arms in the world
TTITLE5=Floyd Cramer - Worried mind
TTITLE6=Brenda Lee - Nobody wins
TTITLE7=Roger Miller - Burning bridges
TTITLE8=Louis Nunley - (Sittin' on) The dock of the Bay
TTITLE9=Loretta Doherty - Poor poor pitiful me
TTITLE10=Mel McDaniel - Baby's got her blue jeans on
TTITLE11=Laura Lee - When there's a fire in your heart
TTITLE12=Chet Atkins - The peanut vendor 
TTITLE13=Harold Morrison and the Maple Hill boys - All the good times 
TTITLE13=are past and gone
TTITLE14=Patsy Cline - Walking dream
TTITLE15=Jerry Wallace - Guess who
TTITLE16=Kenny Rogers - I swear
TTITLE17=Larry Gatlin and the Gatlin brothers - Love is just a game
TTITLE18=Merle Haggard - The way I am
TTITLE19=Billy Joe Royal - Hush
TTITLE20=The Charlie Daniels Band with Darius Rucker - Like a Rolling 
TTITLE20=Stone
EXTD=
EXTT0=
EXTT1=
EXTT2=
EXTT3=
EXTT4=
EXTT5=
EXTT6=
EXTT7=
EXTT8=
EXTT9=
EXTT10=
EXTT11=
EXTT12=
EXTT13=
EXTT14=
EXTT15=
EXTT16=
EXTT17=
EXTT18=
EXTT19=
EXTT20=
PLAYORDER=
